<?xml version="1.0" encoding="UTF-8" standalone="no"?>
<!-- Created with Inkscape (http://www.inkscape.org/) -->

<svg
   xmlns:dc="http://purl.org/dc/elements/1.1/"
   xmlns:cc="http://creativecommons.org/ns#"
   xmlns:rdf="http://www.w3.org/1999/02/22-rdf-syntax-ns#"
   xmlns:svg="http://www.w3.org/2000/svg"
   xmlns="http://www.w3.org/2000/svg"
   xmlns:sodipodi="http://sodipodi.sourceforge.net/DTD/sodipodi-0.dtd"
   xmlns:inkscape="http://www.inkscape.org/namespaces/inkscape"
   width="744.09448819"
   height="1052.3622047"
   id="svg2"
   version="1.1"
   inkscape:version="0.47 r22583"
   sodipodi:docname="New document 1.2011_11_10_15_36_29.0.svg">
  <defs
     id="defs4">
    <marker
       inkscape:stockid="DotM"
       orient="auto"
       refY="0.0"
       refX="0.0"
       id="DotM"
       style="overflow:visible">
      <path
         id="path3686"
         d="M -2.5,-1.0 C -2.5,1.7600000 -4.7400000,4.0 -7.5,4.0 C -10.260000,4.0 -12.5,1.7600000 -12.5,-1.0 C -12.5,-3.7600000 -10.260000,-6.0 -7.5,-6.0 C -4.7400000,-6.0 -2.5,-3.7600000 -2.5,-1.0 z "
         style="fill-rule:evenodd;stroke:#000000;stroke-width:1.0pt;marker-start:none;marker-end:none"
         transform="scale(0.4) translate(7.4, 1)" />
    </marker>
    <marker
       inkscape:stockid="DotL"
       orient="auto"
       refY="0.0"
       refX="0.0"
       id="DotL"
       style="overflow:visible">
      <path
         id="path3683"
         d="M -2.5,-1.0 C -2.5,1.7600000 -4.7400000,4.0 -7.5,4.0 C -10.260000,4.0 -12.5,1.7600000 -12.5,-1.0 C -12.5,-3.7600000 -10.260000,-6.0 -7.5,-6.0 C -4.7400000,-6.0 -2.5,-3.7600000 -2.5,-1.0 z "
         style="fill-rule:evenodd;stroke:#000000;stroke-width:1.0pt;marker-start:none;marker-end:none"
         transform="scale(0.8) translate(7.4, 1)" />
    </marker>
    <marker
       inkscape:stockid="Arrow1Lend"
       orient="auto"
       refY="0.0"
       refX="0.0"
       id="Arrow1Lend"
       style="overflow:visible;">
      <path
         id="path3596"
         d="M 0.0,0.0 L 5.0,-5.0 L -12.5,0.0 L 5.0,5.0 L 0.0,0.0 z "
         style="fill-rule:evenodd;stroke:#000000;stroke-width:1.0pt;marker-start:none;"
         transform="scale(0.8) rotate(180) translate(12.5,0)" />
    </marker>
    <marker
       inkscape:stockid="EmptyDiamondL"
       orient="auto"
       refY="0.0"
       refX="0.0"
       id="EmptyDiamondL"
       style="overflow:visible">
      <path
         id="path3700"
         d="M 0,-7.0710768 L -7.0710894,0 L 0,7.0710589 L 7.0710462,0 L 0,-7.0710768 z "
         style="fill-rule:evenodd;fill:#FFFFFF;stroke:#000000;stroke-width:1.0pt;marker-start:none"
         transform="scale(0.8)" />
    </marker>
    <inkscape:perspective
       sodipodi:type="inkscape:persp3d"
       inkscape:vp_x="0 : 526.18109 : 1"
       inkscape:vp_y="0 : 1000 : 0"
       inkscape:vp_z="744.09448 : 526.18109 : 1"
       inkscape:persp3d-origin="372.04724 : 350.78739 : 1"
       id="perspective10" />
    <inkscape:perspective
       id="perspective5452"
       inkscape:persp3d-origin="0.5 : 0.33333333 : 1"
       inkscape:vp_z="1 : 0.5 : 1"
       inkscape:vp_y="0 : 1000 : 0"
       inkscape:vp_x="0 : 0.5 : 1"
       sodipodi:type="inkscape:persp3d" />
    <inkscape:perspective
       id="perspective5602"
       inkscape:persp3d-origin="0.5 : 0.33333333 : 1"
       inkscape:vp_z="1 : 0.5 : 1"
       inkscape:vp_y="0 : 1000 : 0"
       inkscape:vp_x="0 : 0.5 : 1"
       sodipodi:type="inkscape:persp3d" />
  </defs>
  <sodipodi:namedview
     id="base"
     pagecolor="#ffffff"
     bordercolor="#666666"
     borderopacity="1.0"
     inkscape:pageopacity="0.0"
     inkscape:pageshadow="2"
     inkscape:zoom="1.4142136"
     inkscape:cx="76.144232"
     inkscape:cy="838.35201"
     inkscape:document-units="px"
     inkscape:current-layer="layer1"
     showgrid="false"
     showguides="true"
     inkscape:guide-bbox="true"
     inkscape:window-width="1877"
     inkscape:window-height="1156"
     inkscape:window-x="43"
     inkscape:window-y="0"
     inkscape:window-maximized="0">
    <sodipodi:guide
       orientation="0,1"
       position="796.69622,1131.7065"
       id="guide4475" />
    <sodipodi:guide
       orientation="0,1"
       position="-10.992523,1106.5807"
       id="guide4477" />
  </sodipodi:namedview>
  <metadata
     id="metadata7">
    <rdf:RDF>
      <cc:Work
         rdf:about="">
        <dc:format>image/svg+xml</dc:format>
        <dc:type
           rdf:resource="http://purl.org/dc/dcmitype/StillImage" />
      </cc:Work>
    </rdf:RDF>
  </metadata>
  <g
     inkscape:label="Layer 1"
     inkscape:groupmode="layer"
     id="layer1">
    <g
       id="g4487"
       style="stroke-width:2.9000001;stroke-miterlimit:4;stroke-dasharray:none"
       transform="translate(115.15874,441.38783)">
      <path
         sodipodi:nodetypes="csc"
         style="fill:none;stroke:#000000;stroke-width:2.9000001;stroke-linecap:butt;stroke-linejoin:miter;stroke-miterlimit:4;stroke-opacity:1;stroke-dasharray:none"
         d="m 87.16029,135.07048 c 0,0 34.81714,4.59849 43.35719,16.09471 8.54005,11.49623 10.18237,37.44485 10.18237,37.44485"
         id="path2831" />
      <path
         sodipodi:nodetypes="csccc"
         id="path4783"
         d="m 86.578899,134.98292 c 0,0 34.817141,-4.59849 43.357191,-16.09471 8.54005,-11.49622 10.18237,-37.444846 10.18237,-37.444846 m 54.52495,53.539556 -108.064511,0"
         style="fill:none;stroke:#000000;stroke-width:2.9000001;stroke-linecap:butt;stroke-linejoin:miter;stroke-miterlimit:4;stroke-opacity:1;stroke-dasharray:none" />
      <path
         id="rect2816"
         d="M 140.92746,80.866628 194.81151,134.75067 140.92746,188.63471 87.043416,134.75067 140.92746,80.866628 z"
         style="fill:none;stroke:#000000;stroke-width:2.9000001;stroke-linecap:round;stroke-linejoin:round;stroke-miterlimit:4;stroke-opacity:1;stroke-dasharray:none;marker-mid:url(#DotM)" />
    </g>
    <path
       id="path4072"
       d="M 256.0862,507.00918 325.21313,576.1361 256.0862,645.26302 186.95927,576.1361 256.0862,507.00918 z"
       style="fill:none;stroke:#000000;stroke-width:1;stroke-linecap:round;stroke-linejoin:round;stroke-miterlimit:4;stroke-opacity:1;stroke-dasharray:none;marker-mid:none" />
    <path
       sodipodi:type="inkscape:offset"
       inkscape:radius="0"
       inkscape:original="M 379.90625 193.6875 C 363.38596 193.68763 350.37776 198.77003 340.875 208.90625 C 331.37218 218.99393 326.62497 232.80018 326.625 250.34375 C 326.62497 267.83869 331.37218 281.64495 340.875 291.78125 C 350.37776 301.86884 363.38596 306.9375 379.90625 306.9375 C 386.33886 306.9375 392.43701 306.03562 398.1875 304.28125 C 403.98656 302.52689 409.49053 299.915 414.65625 296.40625 L 414.65625 280.96875 C 409.68546 285.59833 404.37162 289.05335 398.71875 291.34375 C 393.11445 293.63418 387.14763 294.78125 380.8125 294.78125 C 368.33699 294.78125 358.78381 290.97727 352.15625 283.375 C 345.52864 275.72407 342.18748 264.71982 342.1875 250.34375 C 342.18748 235.91905 345.52864 224.91483 352.15625 217.3125 C 358.78381 209.66163 368.33699 205.84386 380.8125 205.84375 C 387.14763 205.84386 393.11445 206.99095 398.71875 209.28125 C 404.37162 211.57177 409.68546 215.02677 414.65625 219.65625 L 414.65625 204.0625 C 409.58801 200.60262 404.14281 198.04948 398.34375 196.34375 C 392.59326 194.58949 386.43633 193.68763 379.90625 193.6875 z "
       style="font-size:72px;font-style:normal;font-variant:normal;font-weight:normal;font-stretch:normal;fill:none;stroke:#000000;stroke-width:1.5;stroke-miterlimit:4;stroke-opacity:1;stroke-dasharray:none;font-family:Sans;-inkscape-font-specification:Helvetica"
       id="path4528"
       d="m 379.90625,193.6875 c -16.52029,1.3e-4 -29.52849,5.08253 -39.03125,15.21875 -9.50282,10.08768 -14.25003,23.89393 -14.25,41.4375 -3e-5,17.49494 4.74718,31.3012 14.25,41.4375 9.50276,10.08759 22.51096,15.15625 39.03125,15.15625 6.43261,0 12.53076,-0.90188 18.28125,-2.65625 5.79906,-1.75436 11.30303,-4.36625 16.46875,-7.875 l 0,-15.4375 c -4.97079,4.62958 -10.28463,8.0846 -15.9375,10.375 -5.6043,2.29043 -11.57112,3.4375 -17.90625,3.4375 -12.47551,0 -22.02869,-3.80398 -28.65625,-11.40625 -6.62761,-7.65093 -9.96877,-18.65518 -9.96875,-33.03125 -2e-5,-14.4247 3.34114,-25.42892 9.96875,-33.03125 6.62756,-7.65087 16.18074,-11.46864 28.65625,-11.46875 6.33513,1.1e-4 12.30195,1.1472 17.90625,3.4375 5.65287,2.29052 10.96671,5.74552 15.9375,10.375 l 0,-15.59375 c -5.06824,-3.45988 -10.51344,-6.01302 -16.3125,-7.71875 -5.75049,-1.75426 -11.90742,-2.65612 -18.4375,-2.65625 z"
       transform="translate(12.561848,325.21227)" />
    <path
       id="path4467"
       style="font-size:72px;font-style:normal;font-variant:normal;font-weight:normal;font-stretch:normal;fill:none;stroke:#000000;stroke-width:1.5;stroke-miterlimit:4;stroke-opacity:1;stroke-dasharray:none;font-family:Sans;-inkscape-font-specification:Helvetica"
       d="m 508.25289,524.4657 0,14.40039 c -5.60429,-2.68019 -10.89173,-4.67822 -15.86238,-5.99407 -4.97075,-1.31568 -9.77087,-1.97355 -14.40039,-1.97366 -8.04088,1.1e-4 -14.25423,1.55952 -18.64011,4.67831 -4.3372,3.11895 -6.50579,7.55358 -6.50577,13.30392 -2e-5,4.82456 1.43759,8.4795 4.31281,10.96476 2.92392,2.43669 8.43066,4.41035 16.52025,5.92098 l 8.91803,1.82747 c 11.01343,2.09555 19.12736,5.79918 24.34179,11.11097 5.26301,5.26313 7.89454,12.3293 7.89463,21.19855 -9e-5,10.57492 -3.55753,18.59139 -10.67237,24.04939 -7.06626,5.45802 -17.44623,8.18703 -31.13995,8.18703 -5.16568,0 -10.67242,-0.58479 -16.52027,-1.75436 -5.79916,-1.16958 -11.8176,-2.89957 -18.05532,-5.18999 l 0,-15.20448 c 5.99407,3.36255 11.8663,5.89661 17.61674,7.60224 5.75038,1.70565 11.40331,2.55845 16.95885,2.55845 8.43063,0 14.93638,-1.65689 19.5173,-4.97071 4.58076,-3.31377 6.87117,-8.04079 6.87124,-14.1811 -7e-5,-5.36052 -1.65695,-9.55149 -4.97069,-12.57293 -3.26512,-3.02137 -8.65006,-5.28741 -16.15476,-6.79815 l -8.99112,-1.75436 c -11.01353,-2.19292 -18.98126,-5.62854 -23.90321,-10.30691 -4.92197,-4.67822 -7.38294,-11.18399 -7.38294,-19.51727 0,-9.64893 3.38688,-17.25115 10.16069,-22.80673 6.8225,-5.55539 16.20345,-8.33311 28.14292,-8.33324 5.11683,1.3e-4 10.33119,0.46307 15.64308,1.38888 5.31174,0.92603 10.74539,2.31488 16.30095,4.16662" />
    <path
       id="path4469"
       style="font-size:72px;font-style:normal;font-variant:normal;font-weight:normal;font-stretch:normal;fill:none;stroke:#000000;stroke-width:1.5;stroke-miterlimit:4;stroke-opacity:1;stroke-dasharray:none;font-family:Sans;-inkscape-font-specification:Helvetica"
       d="m 591.01043,524.4657 0,14.40039 c -5.6043,-2.68019 -10.89174,-4.67822 -15.86238,-5.99407 -4.97075,-1.31568 -9.77088,-1.97355 -14.4004,-1.97366 -8.04088,1.1e-4 -14.25423,1.55952 -18.6401,4.67831 -4.33721,3.11895 -6.5058,7.55358 -6.50578,13.30392 -2e-5,4.82456 1.43759,8.4795 4.31282,10.96476 2.92392,2.43669 8.43065,4.41035 16.52025,5.92098 l 8.91803,1.82747 c 11.01343,2.09555 19.12735,5.79918 24.34179,11.11097 5.26301,5.26313 7.89454,12.3293 7.89462,21.19855 -8e-5,10.57492 -3.55752,18.59139 -10.67237,24.04939 -7.06625,5.45802 -17.44622,8.18703 -31.13995,8.18703 -5.16567,0 -10.67241,-0.58479 -16.52027,-1.75436 -5.79916,-1.16958 -11.8176,-2.89957 -18.05531,-5.18999 l 0,-15.20448 c 5.99407,3.36255 11.86629,5.89661 17.61674,7.60224 5.75038,1.70565 11.40331,2.55845 16.95884,2.55845 8.43064,0 14.93639,-1.65689 19.5173,-4.97071 4.58077,-3.31377 6.87118,-8.04079 6.87124,-14.1811 -6e-5,-5.36052 -1.65695,-9.55149 -4.97068,-12.57293 -3.26513,-3.02137 -8.65006,-5.28741 -16.15477,-6.79815 l -8.99111,-1.75436 c -11.01354,-2.19292 -18.98127,-5.62854 -23.90322,-10.30691 -4.92197,-4.67822 -7.38294,-11.18399 -7.38294,-19.51727 0,-9.64893 3.38688,-17.25115 10.16069,-22.80673 6.82251,-5.55539 16.20346,-8.33311 28.14292,-8.33324 5.11684,1.3e-4 10.33119,0.46307 15.64308,1.38888 5.31175,0.92603 10.7454,2.31488 16.30096,4.16662" />
    <g
       transform="translate(138.88633,229.25117)"
       style="stroke-width:2.9000001;stroke-miterlimit:4;stroke-dasharray:none"
       id="g4492">
      <path
         id="path4494"
         d="m 87.16029,135.07048 c 0,0 34.81714,4.59849 43.35719,16.09471 8.54005,11.49623 10.18237,37.44485 10.18237,37.44485"
         style="fill:none;stroke:#000000;stroke-width:2.9000001;stroke-linecap:butt;stroke-linejoin:miter;stroke-miterlimit:4;stroke-opacity:1;stroke-dasharray:none"
         sodipodi:nodetypes="csc" />
      <path
         style="fill:none;stroke:#000000;stroke-width:2.9000001;stroke-linecap:butt;stroke-linejoin:miter;stroke-miterlimit:4;stroke-opacity:1;stroke-dasharray:none"
         d="m 86.578899,134.98292 c 0,0 34.817141,-4.59849 43.357191,-16.09471 8.54005,-11.49622 10.18237,-37.444846 10.18237,-37.444846 m 54.52495,53.539556 -108.064511,0"
         id="path4496"
         sodipodi:nodetypes="csccc" />
      <path
         style="fill:none;stroke:#000000;stroke-width:2.9000001;stroke-linecap:round;stroke-linejoin:round;stroke-miterlimit:4;stroke-opacity:1;stroke-dasharray:none;marker-mid:url(#DotM)"
         d="M 140.92746,80.866628 194.81151,134.75067 140.92746,188.63471 87.043416,134.75067 140.92746,80.866628 z"
         id="path4498" />
    </g>
    <path
       style="fill:none;stroke:#000000;stroke-width:1;stroke-linecap:round;stroke-linejoin:round;stroke-miterlimit:4;stroke-opacity:1;stroke-dasharray:none;marker-mid:none"
       d="m 279.8138,294.87252 69.12693,69.12692 -69.12693,69.12692 -69.12693,-69.12692 69.12693,-69.12692 z"
       id="path4500" />
    <path
       style="font-size:72px;font-style:normal;font-variant:normal;font-weight:normal;font-stretch:normal;fill:none;stroke:#000000;stroke-width:1.07703924;stroke-miterlimit:4;stroke-opacity:1;stroke-dasharray:none;font-family:Sans;-inkscape-font-specification:Helvetica"
       d="m 430.09224,330.19053 c -15.04895,-10.49008 -37.15829,-10.17962 -51.29817,1.79996 -11.15057,10.87993 -14.02151,27.85787 -11.0361,42.68046 2.75104,15.66186 16.96103,28.81727 33.04125,29.26584 10.01366,0.90445 20.36177,-1.53817 28.75601,-7.11724 3.51468,-2.82873 -0.44712,-10.71431 -4.55015,-7.00403 -10.36135,6.37981 -24.50596,7.98517 -35.06373,1.17438 -8.21669,-5.20567 -11.45903,-15.37016 -11.92766,-24.63127 -0.36099,-9.9615 1.25672,-20.97325 8.81893,-28.17125 8.50405,-8.00395 21.78425,-8.48106 32.12547,-4.05578 2.43489,1.80522 5.14649,4.16403 8.48087,3.82998 4.32323,-0.55142 2.56999,-4.98952 2.65328,-7.77105 z"
       id="path4502" />
    <path
       style="font-size:72px;font-style:normal;font-variant:normal;font-weight:normal;font-stretch:normal;fill:none;stroke:#000000;stroke-width:1.07703924;stroke-miterlimit:4;stroke-opacity:1;stroke-dasharray:none;font-family:Sans;-inkscape-font-specification:Helvetica"
       d="m 488.28663,326.72642 c -12.91256,-4.52389 -27.80603,-6.04485 -40.49974,-0.004 -11.73137,6.4575 -13.70027,25.30788 -3.08498,33.70233 8.9691,6.7909 20.96554,5.64041 30.8991,10.12637 7.68088,3.92369 8.90963,16.46623 1.39702,21.21271 -7.14784,5.21837 -16.68392,4.096 -24.79155,2.22152 -4.75929,-0.0212 -9.17011,-6.35095 -13.55323,-2.77336 -3.67648,3.18769 -0.49786,7.87835 3.13555,9.23564 4.4887,2.02683 9.51797,2.19764 14.2934,3.12327 10.33363,1.26937 21.79139,0.35117 30.26029,-6.2908 10.53251,-9.28435 8.67775,-28.869 -3.88692,-35.50605 -9.62609,-5.50747 -21.9474,-3.46461 -31.04493,-10.18222 -6.25282,-5.96476 -1.89374,-17.82697 6.38801,-19.18986 9.23161,-2.26787 19.11532,-0.61845 27.60179,3.46392 4.82373,-0.25575 2.86514,-6.10732 2.88619,-9.13947 z"
       id="path4504" />
    <path
       style="font-size:72px;font-style:normal;font-variant:normal;font-weight:normal;font-stretch:normal;fill:none;stroke:#000000;stroke-width:1.07703924;stroke-miterlimit:4;stroke-opacity:1;stroke-dasharray:none;font-family:Sans;-inkscape-font-specification:Helvetica"
       d="m 547.70871,326.72642 c -13.08507,-4.62957 -28.27263,-6.07075 -41.0433,0.30725 -11.46544,6.81137 -12.9581,25.64469 -2.10879,33.7119 9.27269,6.70797 21.59495,5.20247 31.50947,10.41067 7.41746,4.73196 7.18373,17.67616 -1.01082,21.50346 -7.87556,4.56945 -17.42981,2.80887 -25.81056,0.86069 -3.32542,-1.22004 -6.55584,-4.46134 -10.33047,-2.91446 -3.99531,2.06526 -2.24486,8.25028 1.50604,9.57952 6.3031,2.48472 13.16039,3.22173 19.87476,3.7591 9.53216,0.54744 20.08518,-1.20365 27.04294,-8.27984 9.02636,-9.84828 6.16709,-27.99567 -5.85198,-34.15257 -9.61761,-5.12748 -21.65813,-3.34961 -30.65318,-9.92032 -6.43936,-6.18649 -1.48579,-18.71509 7.24877,-19.38942 8.99296,-1.95286 18.51689,-0.30226 26.74101,3.66348 4.84395,-0.23677 2.84835,-6.10927 2.88611,-9.13946 z"
       id="path4506" />
    <g
       id="g4508"
       style="stroke-width:2.9000001;stroke-miterlimit:4;stroke-dasharray:none"
       transform="translate(106.78349,710.46055)">
      <path
         sodipodi:nodetypes="csc"
         style="fill:none;stroke:#000000;stroke-width:2.9000001;stroke-linecap:butt;stroke-linejoin:miter;stroke-miterlimit:4;stroke-opacity:1;stroke-dasharray:none"
         d="m 87.16029,135.07048 c 0,0 34.81714,4.59849 43.35719,16.09471 8.54005,11.49623 10.18237,37.44485 10.18237,37.44485"
         id="path4510" />
      <path
         sodipodi:nodetypes="csccc"
         id="path4512"
         d="m 86.578899,134.98292 c 0,0 34.817141,-4.59849 43.357191,-16.09471 8.54005,-11.49622 10.18237,-37.444846 10.18237,-37.444846 m 54.52495,53.539556 -108.064511,0"
         style="fill:none;stroke:#000000;stroke-width:2.9000001;stroke-linecap:butt;stroke-linejoin:miter;stroke-miterlimit:4;stroke-opacity:1;stroke-dasharray:none" />
      <path
         id="path4514"
         d="M 140.92746,80.866628 194.81151,134.75067 140.92746,188.63471 87.043416,134.75067 140.92746,80.866628 z"
         style="fill:none;stroke:#000000;stroke-width:2.9000001;stroke-linecap:round;stroke-linejoin:round;stroke-miterlimit:4;stroke-opacity:1;stroke-dasharray:none;marker-mid:url(#DotM)" />
    </g>
    <path
       id="path4516"
       d="m 247.71095,776.0819 69.12693,69.12692 -69.12693,69.12692 -69.12693,-69.12692 69.12693,-69.12692 z"
       style="fill:none;stroke:#000000;stroke-width:1;stroke-linecap:round;stroke-linejoin:round;stroke-miterlimit:4;stroke-opacity:1;stroke-dasharray:none;marker-mid:none" />
    <path
       id="path4518"
       style="font-size:72px;font-style:normal;font-variant:normal;font-weight:normal;font-stretch:normal;fill:none;stroke:#000000;stroke-width:0.60000002;stroke-miterlimit:4;stroke-opacity:1;stroke-dasharray:none;font-family:Sans;-inkscape-font-specification:Helvetica"
       d="m 254.15937,827.74097 0,2.20702 c -0.7046,-0.65623 -1.45754,-1.14668 -2.25881,-1.47135 -0.79441,-0.32464 -1.6406,-0.48697 -2.53858,-0.48699 -1.76839,2e-5 -3.12229,0.54227 -4.06173,1.62676 -0.93945,1.07762 -1.40917,2.63875 -1.40917,4.68342 0,2.03777 0.46972,3.59892 1.40917,4.68342 0.93944,1.07761 2.29334,1.6164 4.06173,1.6164 0.89798,0 1.74417,-0.16233 2.53858,-0.48699 0.80127,-0.32466 1.55421,-0.81511 2.25881,-1.47135 l 0,2.18629 c -0.73223,0.49736 -1.50934,0.87038 -2.33135,1.11905 -0.81511,0.24868 -1.67858,0.37302 -2.59038,0.37302 -2.34172,0 -4.18607,-0.71495 -5.53307,-2.14484 -1.347,-1.4368 -2.0205,-3.39513 -2.0205,-5.875 0,-2.48676 0.6735,-4.44509 2.0205,-5.875 1.347,-1.43678 3.19135,-2.15518 5.53307,-2.1552 0.92561,2e-5 1.79598,0.12436 2.6111,0.37302 0.82201,0.24179 1.59222,0.60789 2.31063,1.09832" />
    <path
       id="path4520"
       style="font-size:72px;font-style:normal;font-variant:normal;font-weight:normal;font-stretch:normal;fill:none;stroke:#000000;stroke-width:0.60000002;stroke-miterlimit:4;stroke-opacity:1;stroke-dasharray:none;font-family:Sans;-inkscape-font-specification:Helvetica"
       d="m 265.6477,827.05712 0,2.04122 c -0.7944,-0.37991 -1.54388,-0.66313 -2.24846,-0.84965 -0.70459,-0.1865 -1.38499,-0.27975 -2.04123,-0.27976 -1.13976,10e-6 -2.02049,0.22106 -2.64219,0.66314 -0.61478,0.44211 -0.92218,1.0707 -0.92217,1.8858 -1e-5,0.68387 0.20378,1.20195 0.61133,1.55423 0.41446,0.3454 1.19503,0.62516 2.34171,0.83928 l 1.2641,0.25905 c 1.56114,0.29703 2.71127,0.82201 3.4504,1.57495 0.74602,0.74603 1.11904,1.74765 1.11905,3.00485 -1e-5,1.49897 -0.50428,2.63528 -1.51279,3.40894 -1.00163,0.77367 -2.47296,1.1605 -4.41402,1.1605 -0.73222,0 -1.51278,-0.0829 -2.34171,-0.24868 -0.82201,-0.16579 -1.67512,-0.41101 -2.55929,-0.73567 l 0,-2.1552 c 0.84963,0.47664 1.68202,0.83582 2.49713,1.0776 0.8151,0.24177 1.6164,0.36265 2.40387,0.36265 1.19502,0 2.11721,-0.23486 2.76653,-0.70458 0.64932,-0.46972 0.97398,-1.13976 0.97399,-2.01014 -1e-5,-0.75985 -0.23487,-1.3539 -0.70458,-1.78219 -0.46283,-0.42826 -1.22613,-0.74947 -2.2899,-0.96362 l -1.27448,-0.24868 c -1.56114,-0.31083 -2.69054,-0.79783 -3.38822,-1.46097 -0.69768,-0.66313 -1.04651,-1.58532 -1.04651,-2.76654 0,-1.36771 0.48008,-2.44531 1.44024,-3.2328 0.96708,-0.78746 2.29682,-1.1812 3.98921,-1.18122 0.7253,2e-5 1.46442,0.0657 2.21736,0.19688 0.75294,0.13126 1.52314,0.32812 2.31063,0.59061" />
    <path
       id="path4522"
       style="font-size:72px;font-style:normal;font-variant:normal;font-weight:normal;font-stretch:normal;fill:none;stroke:#000000;stroke-width:0.60000002;stroke-miterlimit:4;stroke-opacity:1;stroke-dasharray:none;font-family:Sans;-inkscape-font-specification:Helvetica"
       d="m 277.37839,827.05712 0,2.04122 c -0.79439,-0.37991 -1.54387,-0.66313 -2.24845,-0.84965 -0.70459,-0.1865 -1.38501,-0.27975 -2.04123,-0.27976 -1.13978,10e-6 -2.0205,0.22106 -2.64219,0.66314 -0.61479,0.44211 -0.92218,1.0707 -0.92218,1.8858 0,0.68387 0.20378,1.20195 0.61133,1.55423 0.41447,0.3454 1.19503,0.62516 2.34171,0.83928 l 1.26411,0.25905 c 1.56113,0.29703 2.71126,0.82201 3.45039,1.57495 0.74602,0.74603 1.11904,1.74765 1.11905,3.00485 -10e-6,1.49897 -0.50427,2.63528 -1.51279,3.40894 -1.00162,0.77367 -2.47296,1.1605 -4.41401,1.1605 -0.73223,0 -1.51279,-0.0829 -2.34171,-0.24868 -0.82202,-0.16579 -1.67512,-0.41101 -2.5593,-0.73567 l 0,-2.1552 c 0.84965,0.47664 1.68201,0.83582 2.49712,1.0776 0.81512,0.24177 1.6164,0.36265 2.40389,0.36265 1.19502,0 2.11719,-0.23486 2.76653,-0.70458 0.64932,-0.46972 0.97397,-1.13976 0.97398,-2.01014 -10e-6,-0.75985 -0.23487,-1.3539 -0.70458,-1.78219 -0.46282,-0.42826 -1.22612,-0.74947 -2.2899,-0.96362 l -1.27447,-0.24868 c -1.56115,-0.31083 -2.69056,-0.79783 -3.38823,-1.46097 -0.69768,-0.66313 -1.04651,-1.58532 -1.04651,-2.76654 0,-1.36771 0.48008,-2.44531 1.44025,-3.2328 0.96708,-0.78746 2.2968,-1.1812 3.98919,-1.18122 0.72531,2e-5 1.46443,0.0657 2.21738,0.19688 0.75293,0.13126 1.52314,0.32812 2.31062,0.59061" />
    <g
       transform="translate(374.07169,716.04359)"
       style="stroke-width:2.9000001;stroke-miterlimit:4;stroke-dasharray:none"
       id="g4555">
      <path
         id="path4557"
         d="m 87.16029,135.07048 c 0,0 34.81714,4.59849 43.35719,16.09471 8.54005,11.49623 10.18237,37.44485 10.18237,37.44485"
         style="fill:none;stroke:#000000;stroke-width:2.9000001;stroke-linecap:butt;stroke-linejoin:miter;stroke-miterlimit:4;stroke-opacity:1;stroke-dasharray:none"
         sodipodi:nodetypes="csc" />
      <path
         style="fill:none;stroke:#000000;stroke-width:2.9000001;stroke-linecap:butt;stroke-linejoin:miter;stroke-miterlimit:4;stroke-opacity:1;stroke-dasharray:none"
         d="m 86.578899,134.98292 c 0,0 34.817141,-4.59849 43.357191,-16.09471 8.54005,-11.49622 10.18237,-37.444846 10.18237,-37.444846 m 54.52495,53.539556 -108.064511,0"
         id="path4559"
         sodipodi:nodetypes="csccc" />
      <path
         style="fill:none;stroke:#000000;stroke-width:2.9000001;stroke-linecap:round;stroke-linejoin:round;stroke-miterlimit:4;stroke-opacity:1;stroke-dasharray:none;marker-mid:url(#DotM)"
         d="M 140.92746,80.866628 194.81151,134.75067 140.92746,188.63471 87.043416,134.75067 140.92746,80.866628 z"
         id="path4561" />
    </g>
    <path
       style="fill:none;stroke:#000000;stroke-width:1;stroke-linecap:round;stroke-linejoin:round;stroke-miterlimit:4;stroke-opacity:1;stroke-dasharray:none;marker-mid:none"
       d="m 514.99915,781.66494 69.12693,69.12692 -69.12693,69.12692 -69.12693,-69.12692 69.12693,-69.12692 z"
       id="path4563" />
    <g
       id="g4571"
       style="fill:#949494;fill-opacity:1;stroke:#000000;stroke-width:0.5;stroke-miterlimit:4;stroke-opacity:1;stroke-dasharray:none"
       transform="translate(12.561848,111.66087)">
      <path
         id="path4565"
         style="font-size:72px;font-style:normal;font-variant:normal;font-weight:normal;font-stretch:normal;fill:#949494;fill-opacity:1;stroke:#000000;stroke-width:0.5;stroke-miterlimit:4;stroke-opacity:1;stroke-dasharray:none;font-family:Sans;-inkscape-font-specification:Helvetica"
         d="m 503.11214,727.21696 0,3.86199 c -1.23296,-1.14832 -2.55051,-2.00654 -3.95262,-2.57467 -1.39012,-0.56807 -2.87084,-0.85213 -4.44218,-0.85217 -3.09445,4e-5 -5.4636,0.94891 -7.10749,2.84662 -1.64392,1.88569 -2.46586,4.61746 -2.46586,8.19536 0,3.56583 0.82194,6.29764 2.46586,8.19537 1.64389,1.88567 4.01304,2.82849 7.10749,2.82849 1.57134,0 3.05206,-0.28406 4.44218,-0.85217 1.40211,-0.56811 2.71966,-1.42634 3.95262,-2.57467 l 0,3.82572 c -1.28131,0.87031 -2.64115,1.52305 -4.07956,1.95819 -1.42633,0.43515 -2.93729,0.65273 -4.53282,0.65273 -4.0977,0 -7.32507,-1.25107 -9.68214,-3.75318 -2.35707,-2.51421 -3.53561,-5.94103 -3.53561,-10.28048 0,-4.3515 1.17854,-7.77831 3.53561,-10.28047 2.35707,-2.51417 5.58444,-3.77128 9.68214,-3.77131 1.61969,3e-5 3.14273,0.21761 4.56908,0.65273 1.43841,0.4231 2.78617,1.06373 4.0433,1.92192" />
      <path
         id="path4567"
         style="font-size:72px;font-style:normal;font-variant:normal;font-weight:normal;font-stretch:normal;fill:#949494;fill-opacity:1;stroke:#000000;stroke-width:0.5;stroke-miterlimit:4;stroke-opacity:1;stroke-dasharray:none;font-family:Sans;-inkscape-font-specification:Helvetica"
         d="m 523.21519,726.02031 0,3.57187 c -1.39009,-0.6648 -2.70158,-1.16039 -3.93451,-1.48678 -1.23293,-0.32635 -2.42354,-0.48953 -3.57188,-0.48954 -1.99443,10e-6 -3.53559,0.38682 -4.62348,1.1604 -1.07578,0.77364 -1.61369,1.87359 -1.61368,3.2999 -10e-6,1.19669 0.35659,2.10326 1.06975,2.7197 0.72525,0.60441 2.09115,1.09395 4.09768,1.46863 l 2.21201,0.4533 c 2.73179,0.51977 4.74436,1.43841 6.03774,2.75596 1.30544,1.30545 1.95818,3.05815 1.95819,5.25809 -10e-6,2.623 -0.88242,4.61139 -2.64718,5.96519 -1.75272,1.35382 -4.32735,2.03072 -7.72395,2.03072 -1.28129,0 -2.64716,-0.14506 -4.09768,-0.43515 -1.43841,-0.29011 -2.93124,-0.71922 -4.47842,-1.28733 l 0,-3.77131 c 1.48674,0.83405 2.94331,1.46257 4.36965,1.88565 1.42631,0.42307 2.82848,0.63459 4.20645,0.63459 2.09113,0 3.70484,-0.41097 4.84106,-1.23292 1.13623,-0.82195 1.70434,-1.99443 1.70436,-3.51748 -2e-5,-1.32963 -0.411,-2.36914 -1.23293,-3.11859 -0.80989,-0.7494 -2.14556,-1.31148 -4.00702,-1.68621 l -2.23017,-0.43516 c -2.73179,-0.54391 -4.70809,-1.3961 -5.92894,-2.5565 -1.22084,-1.16039 -1.83125,-2.7741 -1.83125,-4.84108 0,-2.39331 0.84008,-4.27897 2.52023,-5.65697 1.69226,-1.37795 4.01913,-2.06695 6.98059,-2.06698 1.26918,3e-5 2.56254,0.11496 3.88009,0.34451 1.31754,0.22969 2.66529,0.57417 4.04329,1.03349" />
      <path
         id="path4569"
         style="font-size:72px;font-style:normal;font-variant:normal;font-weight:normal;font-stretch:normal;fill:#949494;fill-opacity:1;stroke:#000000;stroke-width:0.5;stroke-miterlimit:4;stroke-opacity:1;stroke-dasharray:none;font-family:Sans;-inkscape-font-specification:Helvetica"
         d="m 543.74235,726.02031 0,3.57187 c -1.39008,-0.6648 -2.70157,-1.16039 -3.93449,-1.48678 -1.23294,-0.32635 -2.42359,-0.48953 -3.57189,-0.48954 -1.99446,10e-6 -3.5356,0.38682 -4.62348,1.1604 -1.0758,0.77364 -1.61369,1.87359 -1.61369,3.2999 0,1.19669 0.35659,2.10326 1.06975,2.7197 0.72526,0.60441 2.09114,1.09395 4.09768,1.46863 l 2.21202,0.4533 c 2.73177,0.51977 4.74435,1.43841 6.03773,2.75596 1.30544,1.30545 1.95817,3.05815 1.95819,5.25809 -2e-5,2.623 -0.88241,4.61139 -2.64718,5.96519 -1.75271,1.35382 -4.32736,2.03072 -7.72394,2.03072 -1.2813,0 -2.64718,-0.14506 -4.09768,-0.43515 -1.43843,-0.29011 -2.93124,-0.71922 -4.47844,-1.28733 l 0,-3.77131 c 1.48678,0.83405 2.9433,1.46257 4.36963,1.88565 1.42636,0.42307 2.82849,0.63459 4.20649,0.63459 2.09113,0 3.70481,-0.41097 4.84106,-1.23292 1.13623,-0.82195 1.70432,-1.99443 1.70434,-3.51748 -2e-5,-1.32963 -0.41099,-2.36914 -1.23292,-3.11859 -0.80988,-0.7494 -2.14555,-1.31148 -4.00702,-1.68621 l -2.23016,-0.43516 c -2.7318,-0.54391 -4.70812,-1.3961 -5.92895,-2.5565 -1.22085,-1.16039 -1.83126,-2.7741 -1.83126,-4.84108 0,-2.39331 0.84008,-4.27897 2.52025,-5.65697 1.69226,-1.37795 4.0191,-2.06695 6.98056,-2.06698 1.26919,3e-5 2.56255,0.11496 3.88012,0.34451 1.31753,0.22969 2.66529,0.57417 4.04328,1.03349" />
    </g>
    <g
       id="g4697"
       transform="translate(-100.49478,-727.19141)">
      <g
         id="g4657"
         style="stroke-width:2.9000001;stroke-miterlimit:4;stroke-dasharray:none"
         transform="translate(241.47441,764.89522)" />
      <path
         id="path4665"
         style="fill:none;stroke:#000000;stroke-width:2;stroke-linecap:round;stroke-linejoin:round;stroke-miterlimit:4;stroke-opacity:1;stroke-dasharray:none;marker-mid:none"
         d="m 382.40187,830.51657 c 23.04231,23.04231 46.08462,46.08461 69.12693,69.12692 -23.04231,23.04231 -46.08462,46.08461 -69.12693,69.12692 -23.04231,-23.04231 -46.08462,-46.08461 -69.12693,-69.12692 23.04231,-23.04231 46.08462,-46.08461 69.12693,-69.12692 z m 0,15.24528 c 17.96135,17.96135 35.9227,35.92269 53.88405,53.88404 -17.96135,17.96135 -35.9227,35.92269 -53.88405,53.88404 -17.96135,-17.96135 -35.9227,-35.92269 -53.88404,-53.88404 17.96134,-17.96135 35.92269,-35.92269 53.88404,-53.88404 z m -54.34856,54.11629 c 15.14228,-2.96202 32.43391,-4.69081 43.4854,-16.6842 7.62368,-10.69049 8.39809,-24.28623 10.0541,-36.85536 m 54.52495,53.53956 c -36.0215,0 -72.04301,0 -108.06451,0 m 0.58145,0.0876 c 15.14228,2.96202 32.43391,4.69081 43.4854,16.6842 7.62367,10.6905 8.39809,24.28623 10.0541,36.85536" />
    </g>
    <path
       style="font-size:72px;font-style:normal;font-variant:normal;font-weight:normal;font-stretch:normal;fill:none;stroke:#000000;stroke-width:2;stroke-miterlimit:4;stroke-opacity:1;stroke-dasharray:none;font-family:Sans;-inkscape-font-specification:Helvetica"
       d="m 426.63638,144.2391 c 0,3.2733 0,6.5466 0,9.8199 -9.62272,-10.31006 -27.63833,-11.96886 -38.30957,-2.35545 -7.37515,7.87071 -8.62699,19.55789 -6.82889,29.78106 1.27805,9.71286 9.10942,18.71699 19.13073,19.71409 8.77013,1.45286 18.12065,-1.34575 24.6862,-7.33007 3.50518,3.71018 0.98948,10.6338 -3.88546,11.65373 -12.8458,6.02743 -29.61955,4.89684 -40.19684,-5.10573 -10.36174,-10.38009 -12.47463,-26.75572 -8.31717,-40.38638 3.11573,-10.26949 11.53877,-19.1394 22.23228,-21.36928 10.65588,-2.72912 22.37116,-0.50231 31.48872,5.57813 z"
       id="path4667" />
    <path
       style="font-size:72px;font-style:normal;font-variant:normal;font-weight:normal;font-stretch:normal;fill:none;stroke:#000000;stroke-width:2;stroke-miterlimit:4;stroke-opacity:1;stroke-dasharray:none;font-family:Sans;-inkscape-font-specification:Helvetica"
       d="m 477.75246,141.19638 c 0,3.0274 0,6.05479 0,9.08219 -9.25592,-4.939 -20.97331,-7.06216 -30.72104,-2.27748 -6.65755,3.98986 -5.10914,16.05297 2.606,17.80723 8.23634,2.62607 17.70634,2.06518 24.85084,7.5686 7.71342,5.4505 9.97278,16.92505 5.14984,24.99931 -3.07622,5.73489 -9.20867,9.4786 -15.64983,9.99113 -9.72883,1.68751 -19.96661,0.41067 -29.02812,-3.45407 -2.57229,-1.89209 -2.57845,-7.24038 0.93014,-8.03214 4.16245,0.19975 7.31545,3.99011 11.58087,3.91454 7.35918,1.26545 15.9242,1.38991 21.9392,-3.71221 5.54762,-5.6331 2.46154,-16.93045 -5.41412,-18.53369 -8.21672,-2.5668 -17.63404,-2.33909 -24.65182,-7.94075 -8.22874,-6.51831 -7.77777,-20.24503 -0.21609,-27.1028 6.0489,-5.61968 14.90824,-6.34404 22.7575,-5.68158 5.40181,0.48207 10.68808,1.80551 15.86663,3.37172 z"
       id="path4669" />
    <path
       style="font-size:72px;font-style:normal;font-variant:normal;font-weight:normal;font-stretch:normal;fill:none;stroke:#000000;stroke-width:2;stroke-miterlimit:4;stroke-opacity:1;stroke-dasharray:none;font-family:Sans;-inkscape-font-specification:Helvetica"
       d="m 529.94688,141.19638 c 0,3.0274 0,6.05479 0,9.08219 -9.17505,-4.84685 -20.68095,-7.039 -30.39924,-2.46041 -6.82444,3.71962 -5.7218,15.82102 1.91513,17.86632 7.8568,2.69379 16.82796,2.03276 23.92977,6.84302 6.73662,4.06917 10.41852,12.54611 8.48555,20.22391 -1.47195,7.28703 -7.3098,13.84274 -14.82839,15.01105 -10.44436,2.56478 -21.65959,1.3211 -31.57878,-2.64738 -2.44701,-1.80926 -3.11636,-6.4834 -0.25896,-8.19504 3.9855,-0.66603 7.06542,3.38936 11.04547,3.62487 7.58715,1.41159 16.26928,1.93609 22.79769,-2.94595 6.10594,-5.28645 3.46473,-17.02862 -4.4737,-18.92393 -8.31385,-2.72622 -17.92298,-2.3443 -25.04258,-8.06599 -7.37711,-5.76885 -7.79598,-17.44407 -2.3385,-24.6559 3.96759,-5.64404 11.01395,-7.9565 17.64941,-8.21235 7.84508,-0.5729 15.63707,1.19618 23.09713,3.45559 z"
       id="path4671" />
  </g>
</svg>
